<?xml version="1.0" standalone="no"?>
<!DOCTYPE svg PUBLIC "-//W3C//DTD SVG 20010904//EN"
 "http://www.w3.org/TR/2001/REC-SVG-20010904/DTD/svg10.dtd">
<svg version="1.0" xmlns="http://www.w3.org/2000/svg"
 width="574.000000pt" height="176.000000pt" viewBox="0 0 574.000000 176.000000"
 preserveAspectRatio="xMidYMid meet">

<g transform="translate(0.000000,176.000000) scale(0.100000,-0.100000)"
fill="#000000" stroke="none">
<path d="M4973 1478 c-13 -6 -25 -20 -29 -32 -3 -12 -13 -29 -21 -38 -11 -13
-14 -32 -11 -67 5 -47 4 -50 -24 -62 -40 -17 -55 -44 -63 -114 -4 -33 -15 -87
-26 -120 -20 -63 -51 -216 -51 -248 1 -22 20 -47 36 -47 7 0 10 19 9 54 -2 41
5 72 31 132 18 44 39 102 46 129 20 76 30 77 30 2 0 -42 -8 -89 -21 -127 -12
-34 -21 -89 -22 -128 -3 -104 11 -465 18 -484 4 -9 15 -18 25 -21 16 -4 18
-11 13 -41 -6 -36 -5 -36 29 -36 44 0 47 4 38 47 -5 22 -4 42 2 53 8 12 8 43
1 101 -10 93 -3 383 9 314 3 -22 3 -86 0 -143 -5 -68 -3 -126 5 -170 7 -37 14
-87 15 -111 3 -51 26 -73 53 -51 11 9 15 27 14 59 -1 25 2 55 8 66 6 11 11 38
12 60 1 22 4 69 6 105 13 232 14 281 5 330 -6 30 -13 74 -16 97 -7 46 3 133
15 133 4 0 13 -28 20 -62 7 -34 18 -74 26 -88 7 -14 16 -40 20 -57 6 -29 4
-34 -20 -43 -22 -8 -26 -15 -23 -42 5 -49 32 -48 57 1 25 48 27 109 6 206 -9
39 -22 103 -30 144 -17 86 -24 97 -75 112 l-38 12 14 40 c20 57 17 90 -11 121
-26 28 -46 31 -82 14z m-196 -700 c-3 -8 -6 -5 -6 6 -1 11 2 17 5 13 3 -3 4
-12 1 -19z"/>
<path d="M290 1112 c-8 -4 -16 -13 -18 -20 -2 -10 3 -10 20 2 16 11 25 13 35
4 7 -6 13 -7 13 -2 0 5 6 -2 13 -15 15 -30 40 -41 31 -14 -6 15 -4 16 7 6 10
-10 10 -16 1 -25 -7 -7 -12 -16 -12 -21 0 -9 209 -7 214 2 2 3 0 17 -5 31 -4
14 -7 20 -8 14 -1 -7 -13 -19 -27 -29 l-25 -16 18 27 c17 27 17 28 0 21 -13
-5 -17 -3 -14 5 2 7 16 13 31 13 14 -1 25 4 23 10 -4 11 -273 18 -297 7z m115
-12 c-3 -5 -1 -10 6 -10 7 0 10 -2 8 -5 -3 -2 -16 -1 -29 2 -22 6 -23 7 -4 14
26 10 26 10 19 -1z"/>
<path d="M799 1092 c-78 -40 -112 -99 -116 -198 l-3 -74 28 -1 c26 0 26 -1 5
-9 -30 -12 -29 -19 10 -76 38 -56 69 -80 117 -90 33 -6 34 -6 20 12 -13 16
-13 17 1 12 9 -3 22 -2 30 3 12 7 12 9 0 9 -11 0 -11 3 0 17 13 15 11 16 -16
10 -28 -7 -29 -6 -11 8 15 12 16 15 5 15 -38 0 -80 73 -81 138 0 71 26 125 72
151 36 20 40 26 40 62 0 34 -3 39 -24 39 -13 0 -48 -13 -77 -28z m-39 -212 c8
-5 11 -12 8 -16 -10 -9 -38 3 -38 16 0 12 10 13 30 0z m15 -80 c3 -6 -1 -7 -9
-4 -18 7 -21 14 -7 14 6 0 13 -4 16 -10z"/>
<path d="M920 1077 c0 -39 3 -45 32 -58 18 -8 43 -30 56 -49 21 -31 23 -44 20
-109 -4 -78 -2 -75 -86 -143 -8 -6 -11 -19 -9 -29 3 -11 1 -19 -4 -19 -5 0 -9
-9 -9 -20 0 -17 5 -19 33 -14 60 11 120 56 150 112 33 60 43 149 17 144 -12
-3 -13 -1 -2 9 18 19 15 40 -5 32 -10 -4 -20 -10 -23 -14 -3 -5 -16 -5 -29 -2
l-23 6 23 12 c13 7 29 10 37 7 25 -9 31 20 12 59 -24 46 -84 96 -130 109 -56
16 -60 14 -60 -33z m173 -189 c-6 -11 -53 -10 -53 2 0 5 13 8 29 7 16 -1 27
-5 24 -9z"/>
<path d="M1170 1105 c-11 -13 -10 -14 5 -9 14 6 16 4 10 -7 -7 -11 -6 -12 7
-2 15 13 28 8 28 -9 0 -5 -4 -6 -10 -3 -16 10 -12 -7 7 -27 22 -24 2 -23 -24
1 -22 21 -33 18 -33 -10 0 -15 13 -17 111 -18 85 -1 110 1 107 11 -3 7 4 21
13 32 10 10 16 23 13 27 -3 5 2 6 10 3 9 -3 16 -1 16 5 0 7 9 5 25 -5 22 -14
25 -14 25 -1 0 22 -31 27 -171 27 -101 0 -129 -3 -139 -15z m194 -4 c19 -7 19
-8 -2 -13 -12 -4 -20 -2 -17 2 3 5 -1 11 -7 13 -7 3 -8 5 -3 6 6 0 19 -4 29
-8z m16 -30 c0 -5 -7 -12 -16 -15 -14 -5 -15 -4 -4 9 14 17 20 19 20 6z"/>
<path d="M1505 1110 c3 -5 2 -10 -4 -10 -5 0 -13 -9 -16 -21 -6 -18 -9 -19
-23 -6 -20 17 -56 7 -66 -18 -10 -28 2 -35 59 -35 39 0 54 4 59 16 9 24 7 46
-4 39 -5 -3 -10 -2 -10 4 0 5 5 13 10 16 13 8 13 25 -1 25 -5 0 -7 -4 -4 -10z
m-64 -57 c13 -16 12 -17 -3 -4 -17 13 -22 21 -14 21 2 0 10 -8 17 -17z"/>
<path d="M1580 1106 c0 -10 6 -13 18 -10 16 5 16 5 0 -6 -16 -9 -18 -27 -18
-126 0 -74 4 -113 10 -109 6 3 10 1 10 -4 0 -6 -5 -11 -10 -11 -7 0 -10 -39
-9 -105 l1 -105 54 2 54 3 0 98 c0 63 -4 96 -10 92 -5 -3 -20 1 -32 9 -12 9
-17 16 -11 16 7 0 15 -5 18 -10 5 -8 11 -8 20 0 10 9 13 43 12 143 l-2 132
-52 3 c-42 2 -53 0 -53 -12z m37 -105 c-1 -15 -4 -17 -14 -9 -15 12 -17 22 -3
13 6 -3 10 -1 10 4 0 6 2 11 4 11 3 0 4 -9 3 -19z m23 -341 c0 -5 -2 -10 -4
-10 -3 0 -8 5 -11 10 -3 6 -1 10 4 10 6 0 11 -4 11 -10z"/>
<path d="M1710 1075 l0 -45 48 0 c52 0 64 -5 80 -36 27 -51 -17 -103 -88 -105
-25 0 -39 -3 -32 -6 6 -2 12 -9 12 -14 0 -6 -4 -7 -10 -4 -6 4 -10 -8 -10 -29
l0 -36 53 1 c84 1 127 19 161 66 23 34 29 52 29 96 0 106 -57 157 -175 157
l-68 0 0 -45z"/>
<path d="M2122 1107 c-83 -30 -140 -113 -142 -203 -1 -88 -1 -87 26 -81 13 2
24 0 24 -4 0 -5 -9 -9 -20 -9 -28 0 -26 -29 6 -75 33 -50 61 -72 103 -85 38
-10 54 -5 31 11 -12 8 -10 9 9 7 18 -2 25 2 27 20 4 20 1 22 -18 17 -21 -5
-21 -5 -6 7 15 13 14 15 -10 26 -40 17 -65 71 -65 139 -1 72 23 117 76 144 33
18 37 23 37 59 0 35 -3 40 -22 39 -13 0 -38 -6 -56 -12z m-52 -238 c0 -12 -37
-12 -44 0 -3 4 -3 11 0 14 8 7 44 -4 44 -14z m5 -69 c8 -13 -5 -13 -25 0 -13
8 -13 10 2 10 9 0 20 -4 23 -10z m-25 -16 c0 -2 -11 -3 -24 -2 -14 1 -23 5
-20 9 4 7 44 0 44 -7z m45 -92 c-3 -3 -11 0 -18 7 -9 10 -8 11 6 5 10 -3 15
-9 12 -12z"/>
<path d="M2210 1080 c0 -36 4 -41 38 -59 41 -21 74 -62 76 -94 1 -13 13 -25
36 -34 l35 -13 -32 3 c-19 2 -33 -1 -34 -7 -1 -6 -2 -22 -3 -36 -4 -39 -35
-90 -62 -102 -13 -6 -27 -23 -31 -37 -3 -14 -9 -31 -14 -36 -4 -6 -5 -16 0
-23 10 -16 72 2 122 35 49 32 94 119 85 163 -3 18 -1 30 5 30 6 0 7 6 1 16 -5
9 -7 25 -5 35 4 14 0 16 -16 12 -12 -3 -21 -9 -21 -14 0 -5 -7 -9 -15 -9 -18
0 -20 30 -2 31 6 1 19 2 27 3 23 2 15 53 -16 93 -16 21 -32 32 -41 29 -8 -3
-11 -1 -8 4 8 12 -70 49 -102 50 -20 0 -23 -5 -23 -40z"/>
<path d="M2650 875 l0 -245 55 0 55 0 0 245 0 245 -55 0 -55 0 0 -245z"/>
<path d="M2903 1101 c-32 -15 -48 -31 -67 -68 -13 -27 -32 -55 -40 -62 -11
-10 -16 -31 -16 -75 l0 -62 86 -102 86 -102 65 0 c62 0 65 1 51 18 -8 9 -58
67 -111 129 -53 62 -97 114 -97 116 0 2 18 23 40 46 22 23 40 48 40 56 0 21
33 35 84 35 l46 0 0 45 0 45 -62 0 c-40 0 -78 -7 -105 -19z"/>
<path d="M3100 1117 c0 -5 80 -188 87 -200 2 -4 18 20 35 55 29 60 29 65 16
103 l-15 40 -61 3 c-34 2 -62 1 -62 -1z m90 -27 c0 -5 -4 -10 -10 -10 -5 0
-10 5 -10 10 0 6 5 10 10 10 6 0 10 -4 10 -10z"/>
<path d="M3291 1078 c-10 -24 -57 -132 -105 -241 -47 -109 -86 -200 -86 -203
0 -2 26 -4 58 -4 l58 0 105 237 c57 130 106 240 107 245 2 4 -24 8 -58 8 l-61
0 -18 -42z m23 -66 c3 -5 -1 -9 -9 -9 -8 0 -12 4 -9 9 3 4 7 8 9 8 2 0 6 -4 9
-8z m-29 -83 c-4 -5 -12 -9 -18 -8 -9 0 -8 2 1 6 6 2 9 10 6 15 -4 7 -2 8 5 4
6 -4 9 -12 6 -17z m-4 -121 c-11 -10 -13 -10 -7 0 4 6 2 12 -4 12 -6 0 -8 5
-4 11 4 8 9 8 17 0 8 -8 7 -14 -2 -23z m-94 -144 c-3 -3 -12 -4 -19 -1 -8 3
-5 6 6 6 11 1 17 -2 13 -5z"/>
<path d="M3450 1043 c1 -127 52 -203 136 -203 31 0 31 1 33 50 0 35 -3 50 -13
50 -31 0 -46 35 -46 108 l0 72 -55 0 -55 0 0 -77z"/>
<path d="M3640 1049 c0 -60 2 -70 15 -65 14 5 14 4 0 -16 -12 -18 -15 -54 -15
-180 l0 -158 55 0 55 0 0 133 c0 129 -1 134 -22 146 -13 6 -15 10 -6 7 23 -7
28 13 28 115 l0 89 -55 0 -55 0 0 -71z"/>
<path d="M3780 1108 c0 -5 8 -8 17 -6 10 2 19 -5 21 -15 3 -16 1 -17 -16 -8
-31 17 -37 13 -16 -10 16 -17 16 -22 4 -29 -8 -6 -11 -10 -6 -10 5 0 3 -7 -4
-15 -7 -8 -9 -15 -5 -15 4 0 13 7 19 16 11 14 13 14 27 -2 13 -16 12 -17 -5
-11 -14 6 -17 4 -12 -8 3 -8 1 -15 -4 -15 -6 0 -10 -7 -10 -15 0 -8 -4 -15 -8
-15 -11 0 -9 -281 1 -298 5 -6 13 -12 19 -12 6 0 3 10 -8 21 l-19 22 25 -13
c21 -10 23 -10 13 1 -17 18 -16 29 3 29 8 0 12 -4 9 -10 -10 -16 12 -12 29 6
24 23 19 1 -5 -25 -23 -25 -23 -26 7 -35 21 -6 21 -3 23 79 1 63 -1 85 -11 85
-9 0 -10 3 -2 8 17 11 25 64 9 58 -7 -2 -21 5 -31 17 -10 12 -12 16 -4 10 31
-28 40 -15 40 61 0 71 -1 74 -22 70 -21 -4 -21 -4 -3 4 15 7 20 19 20 50 l0
42 -47 -2 c-27 0 -48 -5 -48 -10z m50 -143 c-7 -8 -17 -15 -22 -15 -6 0 -5 7
2 15 7 8 17 15 22 15 6 0 5 -7 -2 -15z m30 -25 c0 -4 -7 -11 -16 -14 -13 -5
-14 -4 -6 7 7 8 8 18 4 22 -4 5 -1 5 6 1 6 -4 12 -11 12 -16z m-42 -23 c2 -9
-2 -17 -9 -17 -7 0 -9 3 -6 7 4 3 1 13 -6 21 -10 13 -9 14 3 10 8 -2 16 -12
18 -21z m-6 -62 c3 -13 1 -22 -3 -19 -9 5 -13 44 -5 44 2 0 6 -11 8 -25z m32
-1 c9 -24 2 -26 -12 -4 -7 11 -8 20 -3 20 5 0 12 -7 15 -16z m26 -78 c0 -3 -4
-8 -10 -11 -5 -3 -10 -1 -10 4 0 6 5 11 10 11 6 0 10 -2 10 -4z"/>
<path d="M3901 1075 l-2 -45 116 0 115 0 0 45 0 45 -113 0 -113 0 -3 -45z"/>
<path d="M288 1076 c-10 -7 -18 -23 -18 -35 0 -18 6 -21 40 -21 46 0 63 22 37
47 -13 14 -16 13 -22 -6 -7 -23 -20 -27 -30 -11 -4 6 -1 9 6 8 7 -2 15 5 17
15 4 20 -6 21 -30 3z"/>
<path d="M1161 938 c0 -54 4 -68 15 -68 13 0 13 -2 0 -16 -13 -12 -16 -38 -16
-119 l0 -103 53 1 52 2 1 78 c1 58 -1 77 -11 77 -8 0 -17 5 -21 12 -5 8 -2 9
9 5 20 -8 19 -12 23 85 2 43 -1 80 -6 83 -15 9 -12 27 3 19 7 -4 9 -3 4 2 -5
5 -31 9 -57 9 l-49 0 0 -67z m52 -102 c12 -9 14 -16 8 -21 -6 -3 -11 0 -11 7
0 11 -2 10 -9 0 -6 -10 -10 -9 -14 7 -6 24 1 26 26 7z"/>
<path d="M275 992 c-11 -12 -4 -21 13 -16 16 5 16 5 0 -6 -11 -6 -18 -23 -18
-40 0 -19 -9 -35 -25 -48 -21 -17 -25 -28 -25 -72 l0 -52 33 6 c17 3 43 14 57
24 29 21 70 96 70 128 0 12 -10 26 -22 33 -20 9 -20 10 -3 6 16 -4 21 0 23 20
2 24 0 25 -48 24 -27 -1 -52 -4 -55 -7z m-25 -172 c0 -5 -2 -10 -4 -10 -3 0
-8 5 -11 10 -3 6 -1 10 4 10 6 0 11 -4 11 -10z"/>
<path d="M493 954 c0 -24 5 -44 9 -44 4 0 8 5 8 11 0 5 5 7 12 3 8 -5 5 -11
-10 -17 -20 -9 -22 -18 -22 -79 l0 -68 55 0 56 0 -2 104 c-1 86 -4 106 -18
111 -14 6 -13 8 4 15 13 5 1 8 -37 8 l-56 1 1 -45z m71 -9 c-4 -8 -13 -15 -20
-15 -12 0 -12 3 -2 15 17 19 29 19 22 0z"/>
<path d="M1290 895 l0 -45 58 0 c70 -1 92 -15 92 -63 0 -20 4 -38 10 -42 5 -3
7 -12 4 -20 -4 -8 -10 -13 -15 -10 -4 3 -5 13 -2 21 5 14 3 15 -15 5 -11 -6
-46 -11 -76 -11 l-56 0 0 -45 0 -44 70 1 c57 1 70 4 71 17 0 10 2 12 6 4 7
-19 38 -16 64 7 21 17 22 21 9 30 -11 7 -11 10 -2 10 7 0 10 5 6 12 -4 6 -3 8
2 5 21 -12 38 12 37 52 -2 47 -11 66 -50 108 -42 44 -65 53 -142 53 l-71 0 0
-45z m205 -25 c-3 -5 1 -10 9 -10 22 0 28 -16 21 -51 -5 -21 -10 -28 -17 -21
-6 6 -6 17 1 30 12 22 0 39 -19 27 -5 -3 -10 3 -10 14 0 12 5 21 11 21 5 0 7
-4 4 -10z m9 -95 c3 -8 1 -15 -5 -15 -6 0 -8 -7 -5 -16 3 -9 1 -14 -5 -12 -6
2 -10 7 -10 11 1 4 1 16 1 27 0 23 15 27 24 5z m-164 -75 c0 -5 -4 -10 -10
-10 -5 0 -10 5 -10 10 0 6 5 10 10 10 6 0 10 -4 10 -10z"/>
<path d="M3976 932 c-2 -1 -19 -3 -38 -4 -32 -1 -34 -4 -36 -35 -2 -22 1 -32
8 -28 5 3 10 1 10 -4 0 -7 35 -11 95 -11 l95 0 0 40 c0 33 -4 40 -22 44 -23 5
-107 4 -112 -2z"/>
<path d="M5260 895 c-19 -47 -17 -100 4 -124 14 -15 17 -27 10 -48 -9 -31 -7
-251 3 -266 3 -5 5 -45 4 -87 -2 -65 1 -78 15 -84 9 -4 18 -5 20 -3 2 2 -1 39
-6 83 -14 105 -3 187 27 198 12 5 13 3 6 -6 -6 -8 -7 -42 -2 -88 4 -41 10
-110 15 -152 7 -74 8 -78 32 -78 20 0 23 4 18 23 -3 12 -8 33 -11 47 l-5 25
12 -25 12 -25 4 32 c3 28 5 31 21 21 31 -19 54 -3 46 32 -7 33 10 206 27 262
7 24 15 35 24 31 18 -7 19 45 2 82 -10 22 -18 25 -58 25 -26 0 -62 7 -79 16
-30 15 -36 15 -71 1 -29 -11 -41 -12 -48 -4 -18 23 -21 46 -11 82 13 47 5 69
-11 30z m122 -232 c-3 -16 -7 -22 -10 -15 -4 13 4 42 11 42 2 0 2 -12 -1 -27z
m43 -71 c-3 -3 -11 0 -18 7 -9 10 -8 11 6 5 10 -3 15 -9 12 -12z m-25 -94 c0
-7 -4 -19 -9 -26 -7 -11 -10 -10 -15 3 -3 9 -4 21 0 26 8 13 24 11 24 -3z m53
-77 c4 -29 4 -51 0 -48 -3 4 -14 2 -24 -4 -17 -9 -19 -6 -19 36 0 49 17 93 30
79 4 -5 10 -33 13 -63z m-76 -8 c-3 -10 -5 -4 -5 12 0 17 2 24 5 18 2 -7 2
-21 0 -30z m10 -60 c-3 -10 -5 -4 -5 12 0 17 2 24 5 18 2 -7 2 -21 0 -30z"/>
<path d="M5152 755 c0 -16 2 -22 5 -12 2 9 2 23 0 30 -3 6 -5 -1 -5 -18z"/>
<path d="M227 742 c-16 -3 -17 -15 -15 -110 l3 -107 35 -2 c53 -2 65 3 49 24
-10 12 -10 14 -2 9 9 -5 12 -1 11 11 -5 65 -10 63 127 63 l125 0 1 -40 c1 -22
2 -46 3 -52 0 -8 19 -14 44 -16 l42 -3 0 116 0 116 -202 -2 c-112 -2 -211 -5
-221 -7z"/>
<path d="M3918 697 c-7 -12 -12 -32 -10 -44 2 -17 10 -21 33 -21 20 1 26 4 17
9 -10 7 -9 9 4 9 9 0 18 -6 21 -12 3 -9 10 -7 21 7 8 11 16 16 16 10 0 -5 5
-3 11 5 8 12 9 11 4 -6 -5 -20 -1 -21 44 -22 44 -1 49 1 53 23 4 18 1 25 -11
26 -10 0 -12 2 -3 6 6 2 12 11 12 18 0 10 -23 14 -99 14 -92 1 -100 -1 -113
-22z m24 -46 c-4 -11 -7 -10 -12 5 -4 10 -5 25 -2 33 4 11 7 10 12 -5 4 -10 5
-25 2 -33z m43 29 c3 -6 -1 -7 -9 -4 -18 7 -21 14 -7 14 6 0 13 -4 16 -10z"/>
<path d="M887 653 c-4 -3 -7 -11 -7 -17 0 -6 5 -5 12 2 6 6 9 14 7 17 -3 3 -9
2 -12 -2z"/>
<path d="M2185 649 c-4 -6 -5 -12 -2 -15 2 -3 7 2 10 11 7 17 1 20 -8 4z"/>
<path d="M5143 535 c0 -44 2 -61 4 -37 2 23 2 59 0 80 -2 20 -4 1 -4 -43z"/>
<path d="M5151 404 c0 -11 3 -14 6 -6 3 7 2 16 -1 19 -3 4 -6 -2 -5 -13z"/>
</g>
</svg>
