<?xml version="1.0" encoding="UTF-8"?>
<svg xmlns="http://www.w3.org/2000/svg" xmlns:xlink="http://www.w3.org/1999/xlink" width="200px" height="61px" viewBox="0 0 199 61" version="1.1">
<g id="surface1">
<path style=" stroke:none;fill-rule:nonzero;fill:rgb(0%,0%,0%);fill-opacity:1;" d="M 172.289062 9.773438 C 171.839844 9.980469 171.421875 10.46875 171.285156 10.882812 C 171.179688 11.300781 170.832031 11.886719 170.554688 12.199219 C 170.175781 12.652344 170.070312 13.308594 170.175781 14.523438 C 170.347656 16.152344 170.3125 16.253906 169.34375 16.671875 C 167.957031 17.261719 167.4375 18.195312 167.160156 20.621094 C 167.023438 21.765625 166.640625 23.636719 166.261719 24.78125 C 165.566406 26.964844 164.492188 32.269531 164.492188 33.375 C 164.527344 34.140625 165.1875 35.003906 165.742188 35.003906 C 165.984375 35.003906 166.085938 34.347656 166.054688 33.132812 C 165.984375 31.714844 166.226562 30.636719 167.125 28.558594 C 167.75 27.035156 168.476562 25.023438 168.71875 24.089844 C 169.414062 21.453125 169.757812 21.417969 169.757812 24.019531 C 169.757812 25.472656 169.484375 27.101562 169.03125 28.421875 C 168.617188 29.597656 168.304688 31.503906 168.269531 32.855469 C 168.167969 36.460938 168.652344 48.972656 168.894531 49.632812 C 169.03125 49.945312 169.414062 50.253906 169.757812 50.359375 C 170.3125 50.5 170.382812 50.742188 170.210938 51.78125 C 170.003906 53.027344 170.035156 53.027344 171.214844 53.027344 C 172.738281 53.027344 172.84375 52.890625 172.53125 51.398438 C 172.359375 50.636719 172.394531 49.945312 172.601562 49.5625 C 172.878906 49.148438 172.878906 48.070312 172.636719 46.0625 C 172.289062 42.839844 172.53125 32.789062 172.945312 35.179688 C 173.050781 35.941406 173.050781 38.160156 172.945312 40.136719 C 172.773438 42.492188 172.84375 44.503906 173.121094 46.027344 C 173.363281 47.308594 173.605469 49.042969 173.640625 49.875 C 173.742188 51.640625 174.539062 52.40625 175.476562 51.640625 C 175.855469 51.332031 175.996094 50.707031 175.960938 49.597656 C 175.925781 48.730469 176.03125 47.691406 176.238281 47.308594 C 176.445312 46.929688 176.621094 45.992188 176.652344 45.230469 C 176.6875 44.46875 176.792969 42.839844 176.863281 41.589844 C 177.3125 33.550781 177.347656 31.851562 177.035156 30.152344 C 176.828125 29.113281 176.585938 27.589844 176.480469 26.792969 C 176.238281 25.195312 176.585938 22.183594 177 22.183594 C 177.140625 22.183594 177.449219 23.152344 177.695312 24.332031 C 177.9375 25.507812 178.316406 26.894531 178.59375 27.378906 C 178.835938 27.867188 179.148438 28.765625 179.285156 29.355469 C 179.496094 30.363281 179.425781 30.535156 178.59375 30.847656 C 177.832031 31.125 177.695312 31.367188 177.796875 32.300781 C 177.96875 34 178.90625 33.964844 179.773438 32.269531 C 180.636719 30.605469 180.707031 28.488281 179.980469 25.128906 C 179.667969 23.777344 179.21875 21.558594 178.941406 20.136719 C 178.351562 17.15625 178.109375 16.773438 176.34375 16.253906 L 175.027344 15.839844 L 175.511719 14.453125 C 176.203125 12.476562 176.101562 11.332031 175.128906 10.257812 C 174.230469 9.289062 173.535156 9.183594 172.289062 9.773438 Z M 165.5 34.035156 C 165.394531 34.3125 165.289062 34.207031 165.289062 33.828125 C 165.257812 33.445312 165.359375 33.238281 165.464844 33.375 C 165.566406 33.480469 165.601562 33.792969 165.5 34.035156 Z M 165.5 34.035156 "/>
<path style=" stroke:none;fill-rule:nonzero;fill:rgb(0%,0%,0%);fill-opacity:1;" d="M 10.046875 22.460938 C 9.769531 22.597656 9.492188 22.910156 9.421875 23.152344 C 9.355469 23.5 9.527344 23.5 10.117188 23.082031 C 10.671875 22.703125 10.980469 22.632812 11.328125 22.945312 C 11.570312 23.152344 11.777344 23.1875 11.777344 23.011719 C 11.777344 22.839844 11.988281 23.082031 12.230469 23.535156 C 12.75 24.574219 13.617188 24.953125 13.304688 24.019531 C 13.097656 23.5 13.164062 23.464844 13.546875 23.8125 C 13.894531 24.15625 13.894531 24.367188 13.582031 24.675781 C 13.339844 24.917969 13.164062 25.230469 13.164062 25.40625 C 13.164062 25.71875 20.40625 25.648438 20.578125 25.335938 C 20.648438 25.230469 20.578125 24.746094 20.40625 24.261719 C 20.265625 23.777344 20.164062 23.566406 20.128906 23.777344 C 20.09375 24.019531 19.679688 24.433594 19.191406 24.78125 L 18.328125 25.335938 L 18.949219 24.398438 C 19.539062 23.464844 19.539062 23.429688 18.949219 23.671875 C 18.5 23.84375 18.363281 23.777344 18.464844 23.5 C 18.535156 23.257812 19.019531 23.046875 19.539062 23.046875 C 20.023438 23.082031 20.40625 22.910156 20.335938 22.703125 C 20.199219 22.320312 10.878906 22.078125 10.046875 22.460938 Z M 14.03125 22.875 C 13.925781 23.046875 13.996094 23.222656 14.238281 23.222656 C 14.480469 23.222656 14.585938 23.289062 14.515625 23.394531 C 14.414062 23.464844 13.960938 23.429688 13.511719 23.324219 C 12.75 23.117188 12.714844 23.082031 13.371094 22.839844 C 14.273438 22.492188 14.273438 22.492188 14.03125 22.875 Z M 14.03125 22.875 "/>
<path style=" stroke:none;fill-rule:nonzero;fill:rgb(0%,0%,0%);fill-opacity:1;" d="M 27.679688 23.152344 C 24.980469 24.539062 23.800781 26.582031 23.664062 30.015625 L 23.558594 32.578125 L 24.527344 32.613281 C 25.429688 32.613281 25.429688 32.648438 24.703125 32.925781 C 23.664062 33.34375 23.695312 33.585938 25.046875 35.558594 C 26.363281 37.5 27.4375 38.332031 29.101562 38.679688 C 30.246094 38.886719 30.28125 38.886719 29.792969 38.261719 C 29.34375 37.710938 29.34375 37.675781 29.828125 37.847656 C 30.140625 37.953125 30.589844 37.917969 30.867188 37.742188 C 31.285156 37.5 31.285156 37.433594 30.867188 37.433594 C 30.488281 37.433594 30.488281 37.328125 30.867188 36.84375 C 31.320312 36.324219 31.25 36.289062 30.3125 36.496094 C 29.34375 36.738281 29.308594 36.703125 29.933594 36.21875 C 30.453125 35.804688 30.488281 35.699219 30.105469 35.699219 C 28.789062 35.699219 27.335938 33.167969 27.300781 30.914062 C 27.300781 28.457031 28.199219 26.582031 29.792969 25.683594 C 31.042969 24.988281 31.179688 24.78125 31.179688 23.535156 C 31.179688 22.355469 31.078125 22.183594 30.347656 22.183594 C 29.898438 22.183594 28.6875 22.632812 27.679688 23.152344 Z M 26.332031 30.5 C 26.605469 30.671875 26.710938 30.914062 26.605469 31.054688 C 26.261719 31.367188 25.289062 30.949219 25.289062 30.5 C 25.289062 30.085938 25.636719 30.050781 26.332031 30.5 Z M 26.851562 33.273438 C 26.953125 33.480469 26.816406 33.515625 26.539062 33.410156 C 25.914062 33.167969 25.808594 32.925781 26.296875 32.925781 C 26.503906 32.925781 26.746094 33.066406 26.851562 33.273438 Z M 26.851562 33.273438 "/>
<path style=" stroke:none;fill-rule:nonzero;fill:rgb(0%,0%,0%);fill-opacity:1;" d="M 31.875 23.671875 C 31.875 25.023438 31.976562 25.230469 32.980469 25.683594 C 33.605469 25.960938 34.472656 26.722656 34.921875 27.378906 C 35.648438 28.457031 35.71875 28.90625 35.613281 31.160156 C 35.476562 33.863281 35.546875 33.757812 32.636719 36.113281 C 32.359375 36.324219 32.253906 36.773438 32.324219 37.121094 C 32.425781 37.5 32.359375 37.777344 32.183594 37.777344 C 32.011719 37.777344 31.875 38.089844 31.875 38.472656 C 31.875 39.0625 32.046875 39.128906 33.015625 38.957031 C 35.09375 38.574219 37.175781 37.015625 38.214844 35.074219 C 39.355469 32.996094 39.703125 29.910156 38.800781 30.085938 C 38.386719 30.1875 38.351562 30.117188 38.734375 29.773438 C 39.355469 29.113281 39.253906 28.386719 38.558594 28.664062 C 38.214844 28.800781 37.867188 29.007812 37.761719 29.148438 C 37.660156 29.320312 37.207031 29.320312 36.757812 29.21875 L 35.960938 29.007812 L 36.757812 28.59375 C 37.207031 28.351562 37.761719 28.246094 38.039062 28.351562 C 38.90625 28.664062 39.113281 27.65625 38.457031 26.304688 C 37.625 24.710938 35.546875 22.980469 33.953125 22.527344 C 32.011719 21.972656 31.875 22.042969 31.875 23.671875 Z M 37.867188 30.222656 C 37.660156 30.605469 36.03125 30.570312 36.03125 30.152344 C 36.03125 29.980469 36.480469 29.875 37.035156 29.910156 C 37.589844 29.945312 37.972656 30.085938 37.867188 30.222656 Z M 37.867188 30.222656 "/>
<path style=" stroke:none;fill-rule:nonzero;fill:rgb(0%,0%,0%);fill-opacity:1;" d="M 40.535156 22.703125 C 40.152344 23.152344 40.1875 23.1875 40.707031 23.011719 C 41.191406 22.804688 41.261719 22.875 41.054688 23.257812 C 40.8125 23.636719 40.847656 23.671875 41.296875 23.324219 C 41.816406 22.875 42.265625 23.046875 42.265625 23.636719 C 42.265625 23.8125 42.128906 23.84375 41.921875 23.742188 C 41.367188 23.394531 41.503906 23.984375 42.164062 24.675781 C 42.925781 25.507812 42.230469 25.472656 41.332031 24.644531 C 40.570312 23.914062 40.1875 24.019531 40.1875 24.988281 C 40.1875 25.507812 40.636719 25.578125 44.035156 25.613281 C 46.976562 25.648438 47.84375 25.578125 47.742188 25.230469 C 47.636719 24.988281 47.878906 24.503906 48.191406 24.121094 C 48.539062 23.777344 48.746094 23.324219 48.640625 23.1875 C 48.539062 23.011719 48.710938 22.980469 48.988281 23.082031 C 49.300781 23.1875 49.542969 23.117188 49.542969 22.910156 C 49.542969 22.667969 49.855469 22.738281 50.410156 23.082031 C 51.171875 23.566406 51.273438 23.566406 51.273438 23.117188 C 51.273438 22.355469 50.199219 22.183594 45.351562 22.183594 C 41.851562 22.183594 40.882812 22.285156 40.535156 22.703125 Z M 47.253906 22.839844 C 47.914062 23.082031 47.914062 23.117188 47.1875 23.289062 C 46.769531 23.429688 46.492188 23.359375 46.597656 23.222656 C 46.703125 23.046875 46.5625 22.839844 46.355469 22.769531 C 46.113281 22.667969 46.078125 22.597656 46.25 22.5625 C 46.457031 22.5625 46.910156 22.703125 47.253906 22.839844 Z M 47.808594 23.878906 C 47.808594 24.054688 47.566406 24.296875 47.253906 24.398438 C 46.769531 24.574219 46.734375 24.539062 47.117188 24.089844 C 47.601562 23.5 47.808594 23.429688 47.808594 23.878906 Z M 47.808594 23.878906 "/>
<path style=" stroke:none;fill-rule:nonzero;fill:rgb(0%,0%,0%);fill-opacity:1;" d="M 52.140625 22.527344 C 52.246094 22.703125 52.210938 22.875 52 22.875 C 51.828125 22.875 51.550781 23.1875 51.449219 23.601562 C 51.238281 24.226562 51.136719 24.261719 50.652344 23.8125 C 49.957031 23.222656 48.710938 23.566406 48.363281 24.433594 C 48.019531 25.40625 48.433594 25.648438 50.410156 25.648438 C 51.757812 25.648438 52.277344 25.507812 52.453125 25.09375 C 52.765625 24.261719 52.695312 23.5 52.3125 23.742188 C 52.140625 23.84375 51.96875 23.8125 51.96875 23.601562 C 51.96875 23.429688 52.140625 23.152344 52.3125 23.046875 C 52.765625 22.769531 52.765625 22.183594 52.277344 22.183594 C 52.105469 22.183594 52.035156 22.320312 52.140625 22.527344 Z M 49.921875 24.503906 C 50.375 25.058594 50.339844 25.09375 49.820312 24.644531 C 49.230469 24.191406 49.058594 23.914062 49.335938 23.914062 C 49.402344 23.914062 49.679688 24.191406 49.921875 24.503906 Z M 49.921875 24.503906 "/>
<path style=" stroke:none;fill-rule:nonzero;fill:rgb(0%,0%,0%);fill-opacity:1;" d="M 54.738281 22.667969 C 54.738281 23.011719 54.945312 23.117188 55.363281 23.011719 C 55.917969 22.839844 55.917969 22.839844 55.363281 23.222656 C 54.808594 23.535156 54.738281 24.15625 54.738281 27.589844 C 54.738281 30.152344 54.878906 31.503906 55.085938 31.367188 C 55.292969 31.261719 55.433594 31.332031 55.433594 31.503906 C 55.433594 31.714844 55.257812 31.886719 55.085938 31.886719 C 54.84375 31.886719 54.738281 33.238281 54.773438 35.527344 L 54.808594 39.164062 L 56.679688 39.09375 L 58.550781 38.992188 L 58.550781 35.59375 C 58.550781 33.410156 58.410156 32.269531 58.203125 32.40625 C 58.03125 32.511719 57.511719 32.371094 57.09375 32.09375 C 56.679688 31.78125 56.503906 31.539062 56.714844 31.539062 C 56.957031 31.539062 57.234375 31.714844 57.335938 31.886719 C 57.511719 32.164062 57.71875 32.164062 58.03125 31.886719 C 58.375 31.574219 58.480469 30.394531 58.445312 26.929688 L 58.375 22.355469 L 56.574219 22.25 C 55.121094 22.183594 54.738281 22.25 54.738281 22.667969 Z M 56.019531 26.304688 C 55.984375 26.824219 55.882812 26.894531 55.535156 26.617188 C 55.015625 26.203125 54.945312 25.855469 55.433594 26.167969 C 55.640625 26.273438 55.777344 26.203125 55.777344 26.027344 C 55.777344 25.820312 55.847656 25.648438 55.917969 25.648438 C 56.019531 25.648438 56.054688 25.960938 56.019531 26.304688 Z M 56.816406 38.125 C 56.816406 38.296875 56.75 38.472656 56.679688 38.472656 C 56.574219 38.472656 56.402344 38.296875 56.296875 38.125 C 56.195312 37.917969 56.261719 37.777344 56.4375 37.777344 C 56.644531 37.777344 56.816406 37.917969 56.816406 38.125 Z M 56.816406 38.125 "/>
<path style=" stroke:none;fill-rule:nonzero;fill:rgb(0%,0%,0%);fill-opacity:1;" d="M 59.242188 23.742188 L 59.242188 25.300781 L 60.90625 25.300781 C 62.707031 25.300781 63.121094 25.472656 63.675781 26.550781 C 64.613281 28.316406 63.089844 30.117188 60.628906 30.1875 C 59.761719 30.1875 59.277344 30.292969 59.519531 30.394531 C 59.726562 30.464844 59.9375 30.707031 59.9375 30.882812 C 59.9375 31.089844 59.796875 31.125 59.589844 31.019531 C 59.382812 30.882812 59.242188 31.296875 59.242188 32.023438 L 59.242188 33.273438 L 61.078125 33.238281 C 63.988281 33.203125 65.480469 32.578125 66.65625 30.949219 C 67.453125 29.773438 67.660156 29.148438 67.660156 27.625 C 67.660156 23.949219 65.6875 22.183594 61.597656 22.183594 L 59.242188 22.183594 Z M 59.242188 23.742188 "/>
<path style=" stroke:none;fill-rule:nonzero;fill:rgb(0%,0%,0%);fill-opacity:1;" d="M 73.515625 22.632812 C 70.640625 23.671875 68.667969 26.550781 68.597656 29.667969 C 68.5625 32.71875 68.5625 32.683594 69.496094 32.476562 C 69.949219 32.40625 70.328125 32.476562 70.328125 32.613281 C 70.328125 32.789062 70.015625 32.925781 69.636719 32.925781 C 68.667969 32.925781 68.734375 33.929688 69.84375 35.527344 C 70.988281 37.257812 71.957031 38.019531 73.414062 38.472656 C 74.730469 38.816406 75.285156 38.644531 74.488281 38.089844 C 74.070312 37.8125 74.140625 37.777344 74.796875 37.847656 C 75.421875 37.917969 75.664062 37.777344 75.734375 37.15625 C 75.871094 36.460938 75.769531 36.390625 75.109375 36.566406 C 74.382812 36.738281 74.382812 36.738281 74.902344 36.324219 C 75.421875 35.871094 75.386719 35.804688 74.554688 35.421875 C 73.167969 34.832031 72.304688 32.960938 72.304688 30.605469 C 72.269531 28.109375 73.101562 26.550781 74.9375 25.613281 C 76.082031 24.988281 76.21875 24.816406 76.21875 23.566406 C 76.21875 22.355469 76.113281 22.183594 75.457031 22.214844 C 75.007812 22.214844 74.140625 22.425781 73.515625 22.632812 Z M 71.714844 30.882812 C 71.714844 31.296875 70.433594 31.296875 70.191406 30.882812 C 70.085938 30.742188 70.085938 30.5 70.191406 30.394531 C 70.46875 30.152344 71.714844 30.535156 71.714844 30.882812 Z M 71.886719 33.273438 C 72.164062 33.722656 71.714844 33.722656 71.023438 33.273438 C 70.570312 32.996094 70.570312 32.925781 71.089844 32.925781 C 71.402344 32.925781 71.785156 33.066406 71.886719 33.273438 Z M 71.023438 33.828125 C 71.023438 33.898438 70.640625 33.929688 70.191406 33.898438 C 69.707031 33.863281 69.394531 33.722656 69.496094 33.585938 C 69.636719 33.34375 71.023438 33.585938 71.023438 33.828125 Z M 72.582031 37.015625 C 72.476562 37.121094 72.199219 37.015625 71.957031 36.773438 C 71.644531 36.425781 71.679688 36.390625 72.164062 36.601562 C 72.511719 36.703125 72.683594 36.910156 72.582031 37.015625 Z M 72.582031 37.015625 "/>
<path style=" stroke:none;fill-rule:nonzero;fill:rgb(0%,0%,0%);fill-opacity:1;" d="M 76.566406 23.566406 C 76.566406 24.816406 76.703125 24.988281 77.882812 25.613281 C 79.300781 26.339844 80.445312 27.761719 80.515625 28.871094 C 80.550781 29.320312 80.964844 29.738281 81.761719 30.050781 L 82.972656 30.5 L 81.867188 30.394531 C 81.207031 30.328125 80.722656 30.429688 80.6875 30.636719 C 80.652344 30.847656 80.617188 31.402344 80.582031 31.886719 C 80.445312 33.238281 79.371094 35.003906 78.4375 35.421875 C 77.984375 35.628906 77.5 36.21875 77.363281 36.703125 C 77.257812 37.1875 77.050781 37.777344 76.875 37.953125 C 76.738281 38.160156 76.703125 38.507812 76.875 38.75 C 77.222656 39.304688 79.371094 38.679688 81.105469 37.535156 C 82.800781 36.425781 84.359375 33.410156 84.046875 31.886719 C 83.945312 31.261719 84.015625 30.847656 84.222656 30.847656 C 84.429688 30.847656 84.464844 30.636719 84.257812 30.292969 C 84.082031 29.980469 84.015625 29.425781 84.082031 29.078125 C 84.222656 28.59375 84.082031 28.523438 83.527344 28.664062 C 83.113281 28.765625 82.800781 28.976562 82.800781 29.148438 C 82.800781 29.320312 82.558594 29.460938 82.28125 29.460938 C 81.65625 29.460938 81.589844 28.421875 82.210938 28.386719 C 82.421875 28.351562 82.871094 28.316406 83.148438 28.28125 C 83.945312 28.210938 83.667969 26.445312 82.59375 25.058594 C 82.039062 24.332031 81.484375 23.949219 81.171875 24.054688 C 80.894531 24.15625 80.792969 24.089844 80.894531 23.914062 C 81.171875 23.5 78.46875 22.214844 77.363281 22.183594 C 76.667969 22.183594 76.566406 22.355469 76.566406 23.566406 Z M 76.566406 23.566406 "/>
<path style=" stroke:none;fill-rule:nonzero;fill:rgb(0%,0%,0%);fill-opacity:1;" d="M 91.808594 30.671875 L 91.808594 39.164062 L 95.621094 39.164062 L 95.621094 22.183594 L 91.808594 22.183594 Z M 91.808594 30.671875 "/>
<path style=" stroke:none;fill-rule:nonzero;fill:rgb(0%,0%,0%);fill-opacity:1;" d="M 100.574219 22.839844 C 99.464844 23.359375 98.910156 23.914062 98.253906 25.195312 C 97.800781 26.132812 97.144531 27.101562 96.867188 27.347656 C 96.484375 27.691406 96.3125 28.421875 96.3125 29.945312 L 96.3125 32.09375 L 102.273438 39.164062 L 104.523438 39.164062 C 106.671875 39.164062 106.777344 39.128906 106.289062 38.539062 C 106.011719 38.230469 104.28125 36.21875 102.445312 34.070312 C 100.609375 31.921875 99.085938 30.117188 99.085938 30.050781 C 99.085938 29.980469 99.707031 29.253906 100.46875 28.457031 C 101.230469 27.65625 101.855469 26.792969 101.855469 26.515625 C 101.855469 25.785156 103 25.300781 104.765625 25.300781 L 106.359375 25.300781 L 106.359375 22.183594 L 104.210938 22.183594 C 102.824219 22.183594 101.507812 22.425781 100.574219 22.839844 Z M 100.574219 22.839844 "/>
<path style=" stroke:none;fill-rule:nonzero;fill:rgb(0%,0%,0%);fill-opacity:1;" d="M 107.398438 22.285156 C 107.398438 22.460938 110.171875 28.800781 110.414062 29.21875 C 110.480469 29.355469 111.035156 28.523438 111.625 27.3125 C 112.628906 25.230469 112.628906 25.058594 112.179688 23.742188 L 111.660156 22.355469 L 109.546875 22.25 C 108.367188 22.183594 107.398438 22.214844 107.398438 22.285156 Z M 110.515625 23.222656 C 110.515625 23.394531 110.378906 23.566406 110.171875 23.566406 C 109.996094 23.566406 109.824219 23.394531 109.824219 23.222656 C 109.824219 23.011719 109.996094 22.875 110.171875 22.875 C 110.378906 22.875 110.515625 23.011719 110.515625 23.222656 Z M 110.515625 23.222656 "/>
<path style=" stroke:none;fill-rule:nonzero;fill:rgb(0%,0%,0%);fill-opacity:1;" d="M 114.015625 23.636719 C 113.667969 24.46875 112.042969 28.210938 110.378906 31.992188 C 108.75 35.769531 107.398438 38.921875 107.398438 39.027344 C 107.398438 39.09375 108.300781 39.164062 109.410156 39.164062 L 111.417969 39.164062 L 115.054688 30.949219 C 117.03125 26.445312 118.726562 22.632812 118.761719 22.460938 C 118.832031 22.320312 117.929688 22.183594 116.753906 22.183594 L 114.640625 22.183594 Z M 114.8125 25.925781 C 114.917969 26.097656 114.777344 26.238281 114.5 26.238281 C 114.222656 26.238281 114.085938 26.097656 114.1875 25.925781 C 114.292969 25.785156 114.433594 25.648438 114.5 25.648438 C 114.570312 25.648438 114.710938 25.785156 114.8125 25.925781 Z M 113.808594 28.800781 C 113.667969 28.976562 113.394531 29.113281 113.183594 29.078125 C 112.871094 29.078125 112.90625 29.007812 113.21875 28.871094 C 113.425781 28.800781 113.53125 28.523438 113.425781 28.351562 C 113.289062 28.109375 113.359375 28.074219 113.601562 28.210938 C 113.808594 28.351562 113.914062 28.628906 113.808594 28.800781 Z M 113.667969 32.996094 C 113.289062 33.34375 113.21875 33.34375 113.425781 32.996094 C 113.566406 32.789062 113.496094 32.578125 113.289062 32.578125 C 113.082031 32.578125 113.011719 32.40625 113.148438 32.199219 C 113.289062 31.921875 113.460938 31.921875 113.738281 32.199219 C 114.015625 32.476562 113.980469 32.683594 113.667969 32.996094 Z M 110.414062 37.988281 C 110.308594 38.089844 109.996094 38.125 109.753906 38.019531 C 109.476562 37.917969 109.582031 37.8125 109.960938 37.8125 C 110.34375 37.777344 110.550781 37.882812 110.414062 37.988281 Z M 110.414062 37.988281 "/>
<path style=" stroke:none;fill-rule:nonzero;fill:rgb(0%,0%,0%);fill-opacity:1;" d="M 119.523438 24.851562 C 119.558594 29.253906 121.328125 31.886719 124.238281 31.886719 C 125.308594 31.886719 125.308594 31.851562 125.378906 30.152344 C 125.378906 28.941406 125.277344 28.421875 124.929688 28.421875 C 123.855469 28.421875 123.335938 27.207031 123.335938 24.675781 L 123.335938 22.183594 L 119.523438 22.183594 Z M 119.523438 24.851562 "/>
<path style=" stroke:none;fill-rule:nonzero;fill:rgb(0%,0%,0%);fill-opacity:1;" d="M 126.105469 24.644531 C 126.105469 26.722656 126.175781 27.070312 126.625 26.894531 C 127.113281 26.722656 127.113281 26.757812 126.625 27.449219 C 126.210938 28.074219 126.105469 29.320312 126.105469 33.6875 L 126.105469 39.164062 L 129.917969 39.164062 L 129.917969 34.554688 C 129.917969 30.085938 129.882812 29.910156 129.15625 29.496094 C 128.707031 29.285156 128.636719 29.148438 128.949219 29.253906 C 129.746094 29.496094 129.917969 28.800781 129.917969 25.265625 L 129.917969 22.183594 L 126.105469 22.183594 Z M 126.105469 24.644531 "/>
<path style=" stroke:none;fill-rule:nonzero;fill:rgb(0%,0%,0%);fill-opacity:1;" d="M 130.957031 22.597656 C 130.957031 22.769531 131.234375 22.875 131.546875 22.804688 C 131.894531 22.738281 132.203125 22.980469 132.273438 23.324219 C 132.378906 23.878906 132.308594 23.914062 131.71875 23.601562 C 130.644531 23.011719 130.4375 23.152344 131.164062 23.949219 C 131.71875 24.539062 131.71875 24.710938 131.304688 24.953125 C 131.027344 25.164062 130.921875 25.300781 131.097656 25.300781 C 131.269531 25.300781 131.199219 25.542969 130.957031 25.820312 C 130.714844 26.097656 130.644531 26.339844 130.785156 26.339844 C 130.921875 26.339844 131.234375 26.097656 131.441406 25.785156 C 131.824219 25.300781 131.894531 25.300781 132.378906 25.855469 C 132.828125 26.410156 132.792969 26.445312 132.203125 26.238281 C 131.71875 26.027344 131.617188 26.097656 131.789062 26.515625 C 131.894531 26.792969 131.824219 27.035156 131.652344 27.035156 C 131.441406 27.035156 131.304688 27.277344 131.304688 27.554688 C 131.304688 27.832031 131.164062 28.074219 131.027344 28.074219 C 130.644531 28.074219 130.714844 37.8125 131.0625 38.402344 C 131.234375 38.609375 131.511719 38.816406 131.71875 38.816406 C 131.925781 38.816406 131.824219 38.472656 131.441406 38.089844 L 130.785156 37.328125 L 131.652344 37.777344 C 132.378906 38.125 132.445312 38.125 132.101562 37.742188 C 131.511719 37.121094 131.546875 36.738281 132.203125 36.738281 C 132.480469 36.738281 132.621094 36.878906 132.515625 37.085938 C 132.171875 37.640625 132.933594 37.5 133.519531 36.878906 C 134.351562 36.082031 134.179688 36.84375 133.347656 37.742188 C 132.550781 38.609375 132.550781 38.644531 133.589844 38.957031 C 134.316406 39.164062 134.316406 39.0625 134.386719 36.21875 C 134.421875 34.035156 134.351562 33.273438 134.007812 33.273438 C 133.695312 33.273438 133.660156 33.167969 133.9375 32.996094 C 134.527344 32.613281 134.804688 30.777344 134.25 30.984375 C 134.007812 31.054688 133.519531 30.8125 133.175781 30.394531 C 132.828125 29.980469 132.757812 29.839844 133.035156 30.050781 C 134.109375 31.019531 134.421875 30.570312 134.421875 27.933594 C 134.421875 25.472656 134.386719 25.371094 133.660156 25.507812 C 132.933594 25.648438 132.933594 25.648438 133.554688 25.371094 C 134.074219 25.128906 134.25 24.710938 134.25 23.636719 L 134.25 22.183594 L 132.621094 22.25 C 131.683594 22.25 130.957031 22.425781 130.957031 22.597656 Z M 132.691406 27.554688 C 132.445312 27.832031 132.101562 28.074219 131.925781 28.074219 C 131.71875 28.074219 131.753906 27.832031 131.996094 27.554688 C 132.238281 27.277344 132.585938 27.035156 132.757812 27.035156 C 132.96875 27.035156 132.933594 27.277344 132.691406 27.554688 Z M 133.730469 28.421875 C 133.730469 28.558594 133.488281 28.800781 133.175781 28.90625 C 132.722656 29.078125 132.691406 29.042969 132.96875 28.664062 C 133.210938 28.386719 133.242188 28.039062 133.105469 27.902344 C 132.96875 27.726562 133.070312 27.726562 133.3125 27.867188 C 133.519531 28.003906 133.730469 28.246094 133.730469 28.421875 Z M 132.273438 29.21875 C 132.34375 29.53125 132.203125 29.808594 131.960938 29.808594 C 131.71875 29.808594 131.652344 29.703125 131.753906 29.5625 C 131.894531 29.460938 131.789062 29.113281 131.546875 28.835938 C 131.199219 28.386719 131.234375 28.351562 131.652344 28.488281 C 131.925781 28.558594 132.203125 28.90625 132.273438 29.21875 Z M 132.066406 31.367188 C 132.171875 31.816406 132.101562 32.128906 131.960938 32.023438 C 131.652344 31.851562 131.511719 30.5 131.789062 30.5 C 131.859375 30.5 131.996094 30.882812 132.066406 31.367188 Z M 133.175781 31.402344 C 133.488281 32.234375 133.242188 32.300781 132.757812 31.539062 C 132.515625 31.160156 132.480469 30.847656 132.65625 30.847656 C 132.828125 30.847656 133.070312 31.089844 133.175781 31.402344 Z M 134.074219 34.105469 C 134.074219 34.207031 133.9375 34.382812 133.730469 34.484375 C 133.554688 34.589844 133.382812 34.519531 133.382812 34.347656 C 133.382812 34.140625 133.554688 33.964844 133.730469 33.964844 C 133.9375 33.964844 134.074219 34.035156 134.074219 34.105469 Z M 134.074219 34.105469 "/>
<path style=" stroke:none;fill-rule:nonzero;fill:rgb(0%,0%,0%);fill-opacity:1;" d="M 135.148438 23.742188 L 135.082031 25.300781 L 143.082031 25.300781 L 143.082031 22.183594 L 135.253906 22.183594 Z M 135.148438 23.742188 "/>
<path style=" stroke:none;fill-rule:nonzero;fill:rgb(0%,0%,0%);fill-opacity:1;" d="M 9.976562 23.707031 C 9.632812 23.949219 9.355469 24.503906 9.355469 24.917969 C 9.355469 25.542969 9.5625 25.648438 10.738281 25.648438 C 12.332031 25.648438 12.921875 24.886719 12.023438 24.019531 C 11.570312 23.535156 11.46875 23.566406 11.257812 24.226562 C 11.015625 25.023438 10.566406 25.164062 10.21875 24.609375 C 10.082031 24.398438 10.1875 24.296875 10.429688 24.332031 C 10.671875 24.398438 10.949219 24.15625 11.015625 23.8125 C 11.15625 23.117188 10.808594 23.082031 9.976562 23.707031 Z M 9.976562 23.707031 "/>
<path style=" stroke:none;fill-rule:nonzero;fill:rgb(0%,0%,0%);fill-opacity:1;" d="M 40.222656 28.488281 C 40.222656 30.363281 40.359375 30.847656 40.742188 30.847656 C 41.191406 30.847656 41.191406 30.914062 40.742188 31.402344 C 40.292969 31.816406 40.1875 32.71875 40.1875 35.527344 L 40.1875 39.09375 L 42.023438 39.0625 L 43.824219 38.992188 L 43.859375 36.289062 C 43.894531 34.277344 43.824219 33.621094 43.480469 33.621094 C 43.203125 33.621094 42.890625 33.445312 42.75 33.203125 C 42.578125 32.925781 42.683594 32.890625 43.0625 33.03125 C 43.757812 33.308594 43.722656 33.445312 43.859375 30.085938 C 43.929688 28.59375 43.824219 27.3125 43.652344 27.207031 C 43.132812 26.894531 43.238281 26.273438 43.757812 26.550781 C 44 26.6875 44.066406 26.652344 43.894531 26.480469 C 43.722656 26.304688 42.820312 26.167969 41.921875 26.167969 L 40.222656 26.167969 Z M 42.023438 32.023438 C 42.441406 32.335938 42.507812 32.578125 42.300781 32.753906 C 42.09375 32.855469 41.921875 32.753906 41.921875 32.511719 C 41.921875 32.128906 41.851562 32.164062 41.609375 32.511719 C 41.402344 32.855469 41.261719 32.820312 41.125 32.269531 C 40.914062 31.4375 41.15625 31.367188 42.023438 32.023438 Z M 42.023438 32.023438 "/>
<path style=" stroke:none;fill-rule:nonzero;fill:rgb(0%,0%,0%);fill-opacity:1;" d="M 9.527344 26.617188 C 9.144531 27.035156 9.390625 27.347656 9.976562 27.171875 C 10.53125 27 10.53125 27 9.976562 27.378906 C 9.597656 27.589844 9.355469 28.179688 9.355469 28.765625 C 9.355469 29.425781 9.042969 29.980469 8.488281 30.429688 C 7.761719 31.019531 7.621094 31.402344 7.621094 32.925781 L 7.621094 34.726562 L 8.765625 34.519531 C 9.355469 34.417969 10.253906 34.035156 10.738281 33.6875 C 11.746094 32.960938 13.164062 30.363281 13.164062 29.253906 C 13.164062 28.835938 12.820312 28.351562 12.402344 28.109375 C 11.710938 27.796875 11.710938 27.761719 12.300781 27.902344 C 12.851562 28.039062 13.027344 27.902344 13.097656 27.207031 C 13.164062 26.375 13.097656 26.339844 11.433594 26.375 C 10.496094 26.410156 9.632812 26.515625 9.527344 26.617188 Z M 8.660156 32.578125 C 8.660156 32.753906 8.59375 32.925781 8.523438 32.925781 C 8.417969 32.925781 8.246094 32.753906 8.140625 32.578125 C 8.039062 32.371094 8.105469 32.234375 8.28125 32.234375 C 8.488281 32.234375 8.660156 32.371094 8.660156 32.578125 Z M 8.660156 32.578125 "/>
<path style=" stroke:none;fill-rule:nonzero;fill:rgb(0%,0%,0%);fill-opacity:1;" d="M 17.078125 27.933594 C 17.078125 28.765625 17.253906 29.460938 17.390625 29.460938 C 17.53125 29.460938 17.667969 29.285156 17.667969 29.078125 C 17.667969 28.90625 17.84375 28.835938 18.085938 28.976562 C 18.363281 29.148438 18.257812 29.355469 17.738281 29.5625 C 17.046875 29.875 16.976562 30.1875 16.976562 32.300781 L 16.976562 34.660156 L 20.820312 34.660156 L 20.753906 31.054688 C 20.71875 28.074219 20.613281 27.378906 20.128906 27.207031 C 19.644531 27 19.679688 26.929688 20.265625 26.6875 C 20.71875 26.515625 20.300781 26.410156 18.984375 26.410156 L 17.046875 26.375 Z M 19.539062 28.246094 C 19.402344 28.523438 19.089844 28.765625 18.847656 28.765625 C 18.429688 28.765625 18.429688 28.664062 18.777344 28.246094 C 19.367188 27.589844 19.78125 27.589844 19.539062 28.246094 Z M 19.539062 28.246094 "/>
<path style=" stroke:none;fill-rule:nonzero;fill:rgb(0%,0%,0%);fill-opacity:1;" d="M 44.691406 29.980469 L 44.691406 31.539062 L 46.703125 31.539062 C 49.125 31.574219 49.886719 32.058594 49.886719 33.722656 C 49.886719 34.417969 50.027344 35.039062 50.234375 35.179688 C 50.410156 35.28125 50.476562 35.59375 50.375 35.871094 C 50.234375 36.148438 50.027344 36.324219 49.855469 36.21875 C 49.714844 36.113281 49.679688 35.769531 49.785156 35.492188 C 49.957031 35.003906 49.886719 34.972656 49.265625 35.316406 C 48.882812 35.527344 47.671875 35.699219 46.632812 35.699219 L 44.691406 35.699219 L 44.691406 38.785156 L 47.117188 38.75 C 49.089844 38.714844 49.542969 38.609375 49.578125 38.160156 C 49.578125 37.8125 49.644531 37.742188 49.785156 38.019531 C 50.027344 38.679688 51.101562 38.574219 52 37.777344 C 52.730469 37.1875 52.765625 37.050781 52.3125 36.738281 C 51.933594 36.496094 51.933594 36.390625 52.246094 36.390625 C 52.488281 36.390625 52.589844 36.21875 52.453125 35.976562 C 52.3125 35.769531 52.347656 35.699219 52.523438 35.804688 C 53.25 36.21875 53.839844 35.386719 53.804688 34 C 53.734375 32.371094 53.421875 31.714844 52.070312 30.257812 C 50.617188 28.730469 49.820312 28.421875 47.152344 28.421875 L 44.691406 28.421875 Z M 51.792969 30.847656 C 51.691406 31.019531 51.828125 31.191406 52.105469 31.191406 C 52.867188 31.191406 53.074219 31.746094 52.832031 32.960938 C 52.660156 33.6875 52.488281 33.929688 52.246094 33.6875 C 52.035156 33.480469 52.035156 33.097656 52.277344 32.648438 C 52.695312 31.886719 52.277344 31.296875 51.621094 31.714844 C 51.449219 31.816406 51.273438 31.609375 51.273438 31.226562 C 51.273438 30.8125 51.449219 30.5 51.65625 30.5 C 51.828125 30.5 51.898438 30.636719 51.792969 30.847656 Z M 52.105469 34.140625 C 52.210938 34.417969 52.140625 34.660156 51.933594 34.660156 C 51.726562 34.660156 51.65625 34.902344 51.757812 35.214844 C 51.863281 35.527344 51.792969 35.699219 51.585938 35.628906 C 51.378906 35.558594 51.238281 35.386719 51.238281 35.25 C 51.273438 35.109375 51.273438 34.695312 51.273438 34.3125 C 51.273438 33.515625 51.792969 33.375 52.105469 34.140625 Z M 46.425781 36.738281 C 46.425781 36.910156 46.285156 37.085938 46.078125 37.085938 C 45.90625 37.085938 45.730469 36.910156 45.730469 36.738281 C 45.730469 36.53125 45.90625 36.390625 46.078125 36.390625 C 46.285156 36.390625 46.425781 36.53125 46.425781 36.738281 Z M 46.425781 36.738281 "/>
<path style=" stroke:none;fill-rule:nonzero;fill:rgb(0%,0%,0%);fill-opacity:1;" d="M 137.746094 28.699219 C 137.679688 28.730469 137.089844 28.800781 136.429688 28.835938 C 135.324219 28.871094 135.253906 28.976562 135.183594 30.050781 C 135.113281 30.8125 135.21875 31.160156 135.460938 31.019531 C 135.632812 30.914062 135.808594 30.984375 135.808594 31.160156 C 135.808594 31.402344 137.019531 31.539062 139.097656 31.539062 L 142.390625 31.539062 L 142.390625 30.152344 C 142.390625 29.007812 142.25 28.765625 141.628906 28.628906 C 140.832031 28.457031 137.921875 28.488281 137.746094 28.699219 Z M 137.746094 28.699219 "/>
<path style=" stroke:none;fill-rule:nonzero;fill:rgb(0%,0%,0%);fill-opacity:1;" d="M 182.230469 29.980469 C 181.574219 31.609375 181.644531 33.445312 182.371094 34.277344 C 182.855469 34.796875 182.960938 35.214844 182.71875 35.941406 C 182.40625 37.015625 182.472656 44.640625 182.820312 45.160156 C 182.925781 45.335938 182.992188 46.71875 182.960938 48.175781 C 182.890625 50.429688 182.992188 50.878906 183.480469 51.085938 C 183.789062 51.226562 184.101562 51.261719 184.171875 51.191406 C 184.242188 51.121094 184.136719 49.839844 183.964844 48.316406 C 183.480469 44.675781 183.859375 41.832031 184.898438 41.453125 C 185.316406 41.277344 185.351562 41.347656 185.105469 41.660156 C 184.898438 41.9375 184.863281 43.117188 185.039062 44.710938 C 185.175781 46.132812 185.382812 48.523438 185.558594 49.976562 C 185.800781 52.542969 185.835938 52.683594 186.667969 52.683594 C 187.359375 52.683594 187.464844 52.542969 187.289062 51.882812 C 187.1875 51.46875 187.011719 50.742188 186.910156 50.253906 L 186.734375 49.390625 L 187.152344 50.253906 L 187.566406 51.121094 L 187.707031 50.011719 C 187.808594 49.042969 187.878906 48.9375 188.433594 49.285156 C 189.507812 49.945312 190.304688 49.390625 190.027344 48.175781 C 189.785156 47.03125 190.375 41.035156 190.960938 39.09375 C 191.203125 38.261719 191.480469 37.882812 191.792969 38.019531 C 192.417969 38.261719 192.453125 36.460938 191.863281 35.179688 C 191.515625 34.417969 191.238281 34.3125 189.855469 34.3125 C 188.953125 34.3125 187.707031 34.070312 187.117188 33.757812 C 186.078125 33.238281 185.871094 33.238281 184.65625 33.722656 C 183.652344 34.105469 183.238281 34.140625 182.992188 33.863281 C 182.371094 33.066406 182.265625 32.269531 182.613281 31.019531 C 183.0625 29.390625 182.785156 28.628906 182.230469 29.980469 Z M 186.457031 38.019531 C 186.355469 38.574219 186.214844 38.785156 186.113281 38.539062 C 185.972656 38.089844 186.25 37.085938 186.492188 37.085938 C 186.5625 37.085938 186.5625 37.5 186.457031 38.019531 Z M 187.949219 40.480469 C 187.84375 40.585938 187.566406 40.480469 187.324219 40.238281 C 187.011719 39.894531 187.046875 39.859375 187.53125 40.066406 C 187.878906 40.167969 188.050781 40.378906 187.949219 40.480469 Z M 187.082031 43.738281 C 187.082031 43.980469 186.945312 44.398438 186.769531 44.640625 C 186.527344 45.023438 186.425781 44.988281 186.25 44.535156 C 186.148438 44.226562 186.113281 43.808594 186.25 43.636719 C 186.527344 43.183594 187.082031 43.253906 187.082031 43.738281 Z M 188.917969 46.410156 C 189.058594 47.414062 189.058594 48.175781 188.917969 48.070312 C 188.8125 47.933594 188.433594 48.003906 188.085938 48.210938 C 187.496094 48.523438 187.429688 48.417969 187.429688 46.964844 C 187.429688 45.265625 188.019531 43.738281 188.46875 44.226562 C 188.605469 44.398438 188.8125 45.367188 188.917969 46.410156 Z M 186.285156 46.6875 C 186.179688 47.03125 186.113281 46.824219 186.113281 46.269531 C 186.113281 45.679688 186.179688 45.4375 186.285156 45.644531 C 186.355469 45.886719 186.355469 46.375 186.285156 46.6875 Z M 186.632812 48.765625 C 186.527344 49.113281 186.457031 48.902344 186.457031 48.347656 C 186.457031 47.761719 186.527344 47.519531 186.632812 47.726562 C 186.699219 47.96875 186.699219 48.453125 186.632812 48.765625 Z M 186.632812 48.765625 "/>
<path style=" stroke:none;fill-rule:nonzero;fill:rgb(0%,0%,0%);fill-opacity:1;" d="M 178.492188 34.832031 C 178.492188 35.386719 178.558594 35.59375 178.664062 35.25 C 178.734375 34.9375 178.734375 34.449219 178.664062 34.207031 C 178.558594 34 178.492188 34.242188 178.492188 34.832031 Z M 178.492188 34.832031 "/>
<path style=" stroke:none;fill-rule:nonzero;fill:rgb(0%,0%,0%);fill-opacity:1;" d="M 7.863281 35.28125 C 7.308594 35.386719 7.277344 35.804688 7.34375 39.09375 L 7.449219 42.804688 L 8.660156 42.875 C 10.496094 42.941406 10.914062 42.769531 10.359375 42.042969 C 10.011719 41.625 10.011719 41.554688 10.289062 41.730469 C 10.601562 41.902344 10.707031 41.765625 10.671875 41.347656 C 10.496094 39.09375 10.324219 39.164062 15.070312 39.164062 L 19.402344 39.164062 L 19.4375 40.550781 C 19.46875 41.3125 19.503906 42.144531 19.539062 42.351562 C 19.539062 42.628906 20.199219 42.839844 21.0625 42.90625 L 22.519531 43.011719 L 22.519531 34.972656 L 15.519531 35.039062 C 11.640625 35.109375 8.210938 35.214844 7.863281 35.28125 Z M 7.863281 35.28125 "/>
<path style=" stroke:none;fill-rule:nonzero;fill:rgb(0%,0%,0%);fill-opacity:1;" d="M 135.738281 36.84375 C 135.496094 37.257812 135.324219 37.953125 135.390625 38.367188 C 135.460938 38.957031 135.738281 39.09375 136.535156 39.09375 C 137.226562 39.0625 137.4375 38.957031 137.125 38.785156 C 136.777344 38.539062 136.8125 38.472656 137.261719 38.472656 C 137.574219 38.472656 137.886719 38.679688 137.992188 38.886719 C 138.09375 39.199219 138.335938 39.128906 138.71875 38.644531 C 138.996094 38.261719 139.273438 38.089844 139.273438 38.296875 C 139.273438 38.472656 139.445312 38.402344 139.652344 38.125 C 139.929688 37.710938 139.964844 37.742188 139.792969 38.332031 C 139.617188 39.027344 139.757812 39.0625 141.316406 39.09375 C 142.839844 39.128906 143.015625 39.0625 143.152344 38.296875 C 143.292969 37.675781 143.1875 37.433594 142.769531 37.398438 C 142.425781 37.398438 142.355469 37.328125 142.667969 37.1875 C 142.875 37.121094 143.082031 36.808594 143.082031 36.566406 C 143.082031 36.21875 142.285156 36.082031 139.652344 36.082031 C 136.464844 36.046875 136.1875 36.113281 135.738281 36.84375 Z M 136.570312 38.4375 C 136.429688 38.816406 136.328125 38.785156 136.152344 38.261719 C 136.015625 37.917969 135.980469 37.398438 136.085938 37.121094 C 136.222656 36.738281 136.328125 36.773438 136.5 37.292969 C 136.640625 37.640625 136.675781 38.160156 136.570312 38.4375 Z M 138.058594 37.433594 C 138.164062 37.640625 138.023438 37.675781 137.746094 37.570312 C 137.125 37.328125 137.019531 37.085938 137.503906 37.085938 C 137.714844 37.085938 137.957031 37.222656 138.058594 37.433594 Z M 138.058594 37.433594 "/>
<path style=" stroke:none;fill-rule:nonzero;fill:rgb(0%,0%,0%);fill-opacity:1;" d="M 30.730469 38.367188 C 30.589844 38.472656 30.488281 38.75 30.488281 38.957031 C 30.488281 39.164062 30.660156 39.128906 30.902344 38.886719 C 31.109375 38.679688 31.214844 38.402344 31.144531 38.296875 C 31.042969 38.195312 30.832031 38.230469 30.730469 38.367188 Z M 30.730469 38.367188 "/>
<path style=" stroke:none;fill-rule:nonzero;fill:rgb(0%,0%,0%);fill-opacity:1;" d="M 75.699219 38.507812 C 75.558594 38.714844 75.527344 38.921875 75.628906 39.027344 C 75.699219 39.128906 75.871094 38.957031 75.976562 38.644531 C 76.21875 38.054688 76.011719 37.953125 75.699219 38.507812 Z M 75.699219 38.507812 "/>
<path style=" stroke:none;fill-rule:nonzero;fill:rgb(0%,0%,0%);fill-opacity:1;" d="M 178.179688 42.457031 C 178.179688 43.980469 178.246094 44.570312 178.316406 43.738281 C 178.386719 42.941406 178.386719 41.695312 178.316406 40.96875 C 178.246094 40.273438 178.179688 40.933594 178.179688 42.457031 Z M 178.179688 42.457031 "/>
<path style=" stroke:none;fill-rule:nonzero;fill:rgb(0%,0%,0%);fill-opacity:1;" d="M 178.457031 46.996094 C 178.457031 47.378906 178.558594 47.484375 178.664062 47.207031 C 178.765625 46.964844 178.734375 46.652344 178.628906 46.546875 C 178.523438 46.410156 178.421875 46.617188 178.457031 46.996094 Z M 178.457031 46.996094 "/>
</g>
</svg>
